<svg width="24" height="24" viewBox="0 0 24 24" fill="none" xmlns="http://www.w3.org/2000/svg">
<g clip-path="url(#clip0_2344_5843)">
<path d="M7 12H10V16H7V12Z" stroke="#03A5A8" stroke-width="1.5" stroke-linecap="round" stroke-linejoin="round"/>
<path d="M10 6H4C3.73478 6 3.48043 6.10536 3.29289 6.29289C3.10536 6.48043 3 6.73478 3 7V19C3 19.2652 3.10536 19.5196 3.29289 19.7071C3.48043 19.8946 3.73478 20 4 20H20C20.2652 20 20.5196 19.8946 20.7071 19.7071C20.8946 19.5196 21 19.2652 21 19V7C21 6.73478 20.8946 6.48043 20.7071 6.29289C20.5196 6.10536 20.2652 6 20 6H14" stroke="#03A5A8" stroke-width="1.5" stroke-linecap="round" stroke-linejoin="round"/>
<path d="M10 4C10 3.73478 10.1054 3.48043 10.2929 3.29289C10.4804 3.10536 10.7348 3 11 3H13C13.2652 3 13.5196 3.10536 13.7071 3.29289C13.8946 3.48043 14 3.73478 14 4V7C14 7.26522 13.8946 7.51957 13.7071 7.70711C13.5196 7.89464 13.2652 8 13 8H11C10.7348 8 10.4804 7.89464 10.2929 7.70711C10.1054 7.51957 10 7.26522 10 7V4Z" stroke="#03A5A8" stroke-width="1.5" stroke-linecap="round" stroke-linejoin="round"/>
<path d="M14 16H16" stroke="#03A5A8" stroke-width="1.5" stroke-linecap="round" stroke-linejoin="round"/>
<path d="M14 12H18" stroke="#03A5A8" stroke-width="1.5" stroke-linecap="round" stroke-linejoin="round"/>
</g>
<defs>
<clipPath id="clip0_2344_5843">
<rect width="24" height="24" fill="white"/>
</clipPath>
</defs>
</svg>
