<svg width="48" height="48" viewBox="0 0 48 48" fill="none" xmlns="http://www.w3.org/2000/svg">
<circle cx="23.9851" cy="23.9851" r="21.9851" fill="white" stroke="#EEE8E8" stroke-width="4"/>
<circle cx="24.1634" cy="24.1634" r="20.6634" stroke="#01A0A3" stroke-opacity="0.2"/>
<path d="M25.2178 20.4778C25.2178 19.8418 25.3678 19.2838 25.6678 18.8038C25.9798 18.3118 26.4118 17.9278 26.9638 17.6518C27.5278 17.3758 28.1698 17.2378 28.8898 17.2378C29.6098 17.2378 30.2458 17.3758 30.7978 17.6518C31.3618 17.9278 31.7938 18.3118 32.0938 18.8038C32.4058 19.2838 32.5618 19.8418 32.5618 20.4778C32.5618 21.1138 32.4058 21.6778 32.0938 22.1698C31.7818 22.6618 31.3438 23.0518 30.7798 23.3398C30.2278 23.6158 29.5918 23.7538 28.8718 23.7538C28.1518 23.7538 27.5158 23.6158 26.9638 23.3398C26.4118 23.0518 25.9798 22.6618 25.6678 22.1698C25.3678 21.6778 25.2178 21.1138 25.2178 20.4778ZM30.1858 20.4958C30.1858 20.0158 30.0598 19.6498 29.8078 19.3978C29.5558 19.1458 29.2438 19.0198 28.8718 19.0198C28.5118 19.0198 28.2058 19.1458 27.9538 19.3978C27.7138 19.6498 27.5938 20.0158 27.5938 20.4958C27.5938 20.9638 27.7138 21.3238 27.9538 21.5758C28.1938 21.8278 28.4998 21.9538 28.8718 21.9538C29.2438 21.9538 29.5558 21.8278 29.8078 21.5758C30.0598 21.3118 30.1858 20.9518 30.1858 20.4958Z" fill="#03A5A8"/>
<path d="M18.4858 19.7219V16.8599H23.4718V29.9999H20.2678V19.7219H18.4858Z" fill="#03A5A8"/>
</svg>
