<svg width="48" height="48" viewBox="0 0 48 48" fill="none" xmlns="http://www.w3.org/2000/svg">
<circle cx="23.9851" cy="23.9851" r="21.9851" fill="white" stroke="#EEE8E8" stroke-width="4"/>
<circle cx="24.1634" cy="24.1634" r="20.6634" stroke="#01A0A3" stroke-opacity="0.2"/>
<path d="M25.7334 20.4778C25.7334 19.8418 25.8834 19.2838 26.1834 18.8038C26.4954 18.3118 26.9274 17.9278 27.4794 17.6518C28.0434 17.3758 28.6854 17.2378 29.4054 17.2378C30.1254 17.2378 30.7614 17.3758 31.3134 17.6518C31.8774 17.9278 32.3094 18.3118 32.6094 18.8038C32.9214 19.2838 33.0774 19.8418 33.0774 20.4778C33.0774 21.1138 32.9214 21.6778 32.6094 22.1698C32.2974 22.6618 31.8594 23.0518 31.2954 23.3398C30.7434 23.6158 30.1074 23.7538 29.3874 23.7538C28.6674 23.7538 28.0314 23.6158 27.4794 23.3398C26.9274 23.0518 26.4954 22.6618 26.1834 22.1698C25.8834 21.6778 25.7334 21.1138 25.7334 20.4778ZM30.7014 20.4958C30.7014 20.0158 30.5754 19.6498 30.3234 19.3978C30.0714 19.1458 29.7594 19.0198 29.3874 19.0198C29.0274 19.0198 28.7214 19.1458 28.4694 19.3978C28.2294 19.6498 28.1094 20.0158 28.1094 20.4958C28.1094 20.9638 28.2294 21.3238 28.4694 21.5758C28.7094 21.8278 29.0154 21.9538 29.3874 21.9538C29.7594 21.9538 30.0714 21.8278 30.3234 21.5758C30.5754 21.3118 30.7014 20.9518 30.7014 20.4958Z" fill="#03A5A8"/>
<path d="M15.702 27.5338C16.11 27.2098 16.296 27.0598 16.26 27.0838C17.436 26.1118 18.36 25.3138 19.032 24.6898C19.716 24.0658 20.292 23.4118 20.76 22.7278C21.228 22.0438 21.462 21.3778 21.462 20.7298C21.462 20.2378 21.348 19.8538 21.12 19.5778C20.892 19.3018 20.55 19.1638 20.094 19.1638C19.638 19.1638 19.278 19.3378 19.014 19.6858C18.762 20.0218 18.636 20.5018 18.636 21.1258H15.666C15.69 20.1058 15.906 19.2538 16.314 18.5698C16.734 17.8858 17.28 17.3818 17.952 17.0578C18.636 16.7338 19.392 16.5718 20.22 16.5718C21.648 16.5718 22.722 16.9378 23.442 17.6698C24.174 18.4018 24.54 19.3558 24.54 20.5318C24.54 21.8158 24.102 23.0098 23.226 24.1138C22.35 25.2058 21.234 26.2738 19.878 27.3178H24.738V29.8198H15.702V27.5338Z" fill="#03A5A8"/>
</svg>
