<svg width="48" height="48" viewBox="0 0 48 48" fill="none" xmlns="http://www.w3.org/2000/svg">
<circle cx="23.9851" cy="23.9851" r="21.9851" fill="white" stroke="#EEE8E8" stroke-width="4"/>
<circle cx="24.1634" cy="24.1634" r="20.6634" stroke="#01A0A3" stroke-opacity="0.2"/>
<path d="M25.3486 20.4778C25.3486 19.8418 25.4986 19.2838 25.7986 18.8038C26.1106 18.3118 26.5426 17.9278 27.0946 17.6518C27.6586 17.3758 28.3006 17.2378 29.0206 17.2378C29.7406 17.2378 30.3766 17.3758 30.9286 17.6518C31.4926 17.9278 31.9246 18.3118 32.2246 18.8038C32.5366 19.2838 32.6926 19.8418 32.6926 20.4778C32.6926 21.1138 32.5366 21.6778 32.2246 22.1698C31.9126 22.6618 31.4746 23.0518 30.9106 23.3398C30.3586 23.6158 29.7226 23.7538 29.0026 23.7538C28.2826 23.7538 27.6466 23.6158 27.0946 23.3398C26.5426 23.0518 26.1106 22.6618 25.7986 22.1698C25.4986 21.6778 25.3486 21.1138 25.3486 20.4778ZM30.3166 20.4958C30.3166 20.0158 30.1906 19.6498 29.9386 19.3978C29.6866 19.1458 29.3746 19.0198 29.0026 19.0198C28.6426 19.0198 28.3366 19.1458 28.0846 19.3978C27.8446 19.6498 27.7246 20.0158 27.7246 20.4958C27.7246 20.9638 27.8446 21.3238 28.0846 21.5758C28.3246 21.8278 28.6306 21.9538 29.0026 21.9538C29.3746 21.9538 29.6866 21.8278 29.9386 21.5758C30.1906 21.3118 30.3166 20.9518 30.3166 20.4958Z" fill="#03A5A8"/>
<path d="M14.9179 20.5682C14.9659 19.2842 15.3859 18.2942 16.1779 17.5982C16.9699 16.9022 18.0439 16.5542 19.3999 16.5542C20.2999 16.5542 21.0679 16.7102 21.7039 17.0222C22.3519 17.3342 22.8379 17.7602 23.1619 18.3002C23.4979 18.8402 23.6659 19.4462 23.6659 20.1182C23.6659 20.9102 23.4679 21.5582 23.0719 22.0622C22.6759 22.5542 22.2139 22.8902 21.6859 23.0702V23.1422C22.3699 23.3702 22.9099 23.7482 23.3059 24.2762C23.7019 24.8042 23.8999 25.4822 23.8999 26.3102C23.8999 27.0542 23.7259 27.7142 23.3779 28.2902C23.0419 28.8542 22.5439 29.2982 21.8839 29.6222C21.2359 29.9462 20.4619 30.1082 19.5619 30.1082C18.1219 30.1082 16.9699 29.7542 16.1059 29.0462C15.2539 28.3382 14.8039 27.2702 14.7559 25.8422H17.7439C17.7559 26.3702 17.9059 26.7902 18.1939 27.1022C18.4819 27.4022 18.9019 27.5522 19.4539 27.5522C19.9219 27.5522 20.2819 27.4202 20.5339 27.1562C20.7979 26.8802 20.9299 26.5202 20.9299 26.0762C20.9299 25.5002 20.7439 25.0862 20.3719 24.8342C20.0119 24.5702 19.4299 24.4382 18.6259 24.4382H18.0499V21.9362H18.6259C19.2379 21.9362 19.7299 21.8342 20.1019 21.6302C20.4859 21.4142 20.6779 21.0362 20.6779 20.4962C20.6779 20.0642 20.5579 19.7282 20.3179 19.4882C20.0779 19.2482 19.7479 19.1282 19.3279 19.1282C18.8719 19.1282 18.5299 19.2662 18.3019 19.5422C18.0859 19.8182 17.9599 20.1602 17.9239 20.5682H14.9179Z" fill="#03A5A8"/>
</svg>
