<svg width="48" height="48" viewBox="0 0 48 48" fill="none" xmlns="http://www.w3.org/2000/svg">
<circle cx="23.9851" cy="23.9851" r="21.9851" fill="white" stroke="#EEE8E8" stroke-width="4"/>
<circle cx="24.1634" cy="24.1634" r="20.6634" stroke="#01A0A3" stroke-opacity="0.2"/>
<path d="M26.6318 20.4778C26.6318 19.8418 26.7818 19.2838 27.0818 18.8038C27.3938 18.3118 27.8258 17.9278 28.3778 17.6518C28.9418 17.3758 29.5838 17.2378 30.3038 17.2378C31.0238 17.2378 31.6598 17.3758 32.2118 17.6518C32.7758 17.9278 33.2078 18.3118 33.5078 18.8038C33.8198 19.2838 33.9758 19.8418 33.9758 20.4778C33.9758 21.1138 33.8198 21.6778 33.5078 22.1698C33.1958 22.6618 32.7578 23.0518 32.1938 23.3398C31.6418 23.6158 31.0058 23.7538 30.2858 23.7538C29.5658 23.7538 28.9298 23.6158 28.3778 23.3398C27.8258 23.0518 27.3938 22.6618 27.0818 22.1698C26.7818 21.6778 26.6318 21.1138 26.6318 20.4778ZM31.5998 20.4958C31.5998 20.0158 31.4738 19.6498 31.2218 19.3978C30.9698 19.1458 30.6578 19.0198 30.2858 19.0198C29.9258 19.0198 29.6198 19.1458 29.3678 19.3978C29.1278 19.6498 29.0078 20.0158 29.0078 20.4958C29.0078 20.9638 29.1278 21.3238 29.3678 21.5758C29.6078 21.8278 29.9138 21.9538 30.2858 21.9538C30.6578 21.9538 30.9698 21.8278 31.2218 21.5758C31.4738 21.3118 31.5998 20.9518 31.5998 20.4958Z" fill="#03A5A8"/>
<path d="M14.8818 27.66V25.176L20.5698 17.04H24.0078V24.996H25.4838V27.66H24.0078V30H20.9298V27.66H14.8818ZM21.1458 20.424L18.1218 24.996H21.1458V20.424Z" fill="#03A5A8"/>
</svg>
