<svg width="48" height="48" viewBox="0 0 48 48" fill="none" xmlns="http://www.w3.org/2000/svg">
<circle cx="23.9851" cy="23.9851" r="21.9851" fill="white" stroke="#EEE8E8" stroke-width="4"/>
<circle cx="24.1634" cy="24.1634" r="20.6634" stroke="#01A0A3" stroke-opacity="0.2"/>
<path d="M27.1572 20.4778C27.1572 19.8418 27.3072 19.2838 27.6072 18.8038C27.9192 18.3118 28.3512 17.9278 28.9032 17.6518C29.4672 17.3758 30.1092 17.2378 30.8292 17.2378C31.5492 17.2378 32.1852 17.3758 32.7372 17.6518C33.3012 17.9278 33.7332 18.3118 34.0332 18.8038C34.3452 19.2838 34.5012 19.8418 34.5012 20.4778C34.5012 21.1138 34.3452 21.6778 34.0332 22.1698C33.7212 22.6618 33.2832 23.0518 32.7192 23.3398C32.1672 23.6158 31.5312 23.7538 30.8112 23.7538C30.0912 23.7538 29.4552 23.6158 28.9032 23.3398C28.3512 23.0518 27.9192 22.6618 27.6072 22.1698C27.3072 21.6778 27.1572 21.1138 27.1572 20.4778ZM32.1252 20.4958C32.1252 20.0158 31.9992 19.6498 31.7472 19.3978C31.4952 19.1458 31.1832 19.0198 30.8112 19.0198C30.4512 19.0198 30.1452 19.1458 29.8932 19.3978C29.6532 19.6498 29.5332 20.0158 29.5332 20.4958C29.5332 20.9638 29.6532 21.3238 29.8932 21.5758C30.1332 21.8278 30.4392 21.9538 30.8112 21.9538C31.1832 21.9538 31.4952 21.8278 31.7472 21.5758C31.9992 21.3118 32.1252 20.9518 32.1252 20.4958Z" fill="#03A5A8"/>
<path d="M25.0622 19.5418H19.4462V22.0258C19.6862 21.7618 20.0222 21.5458 20.4542 21.3778C20.8862 21.2098 21.3542 21.1258 21.8582 21.1258C22.7582 21.1258 23.5022 21.3298 24.0902 21.7378C24.6902 22.1458 25.1282 22.6738 25.4042 23.3218C25.6802 23.9698 25.8182 24.6718 25.8182 25.4278C25.8182 26.8318 25.4222 27.9478 24.6302 28.7758C23.8382 29.5918 22.7222 29.9998 21.2822 29.9998C20.3222 29.9998 19.4882 29.8378 18.7802 29.5138C18.0722 29.1778 17.5262 28.7158 17.1422 28.1278C16.7582 27.5398 16.5482 26.8618 16.5122 26.0938H19.5182C19.5902 26.4658 19.7642 26.7778 20.0402 27.0298C20.3162 27.2698 20.6942 27.3898 21.1742 27.3898C21.7382 27.3898 22.1582 27.2098 22.4342 26.8498C22.7102 26.4898 22.8482 26.0098 22.8482 25.4098C22.8482 24.8218 22.7042 24.3718 22.4162 24.0598C22.1282 23.7478 21.7082 23.5918 21.1562 23.5918C20.7482 23.5918 20.4122 23.6938 20.1482 23.8978C19.8842 24.0898 19.7102 24.3478 19.6262 24.6718H16.6562V16.8418H25.0622V19.5418Z" fill="#03A5A8"/>
</svg>
