<svg width="48" height="48" viewBox="0 0 48 48" fill="none" xmlns="http://www.w3.org/2000/svg">
<circle cx="23.9851" cy="23.9851" r="21.9851" fill="white" stroke="#EEE8E8" stroke-width="4"/>
<circle cx="24.1634" cy="24.1634" r="20.6634" stroke="#01A0A3" stroke-opacity="0.2"/>
<path d="M25.9111 20.4778C25.9111 19.8418 26.0611 19.2838 26.3611 18.8038C26.6731 18.3118 27.1051 17.9278 27.6571 17.6518C28.2211 17.3758 28.8631 17.2378 29.5831 17.2378C30.3031 17.2378 30.9391 17.3758 31.4911 17.6518C32.0551 17.9278 32.4871 18.3118 32.7871 18.8038C33.0991 19.2838 33.2551 19.8418 33.2551 20.4778C33.2551 21.1138 33.0991 21.6778 32.7871 22.1698C32.4751 22.6618 32.0371 23.0518 31.4731 23.3398C30.9211 23.6158 30.2851 23.7538 29.5651 23.7538C28.8451 23.7538 28.2091 23.6158 27.6571 23.3398C27.1051 23.0518 26.6731 22.6618 26.3611 22.1698C26.0611 21.6778 25.9111 21.1138 25.9111 20.4778ZM30.8791 20.4958C30.8791 20.0158 30.7531 19.6498 30.5011 19.3978C30.2491 19.1458 29.9371 19.0198 29.5651 19.0198C29.2051 19.0198 28.8991 19.1458 28.6471 19.3978C28.4071 19.6498 28.2871 20.0158 28.2871 20.4958C28.2871 20.9638 28.4071 21.3238 28.6471 21.5758C28.8871 21.8278 29.1931 21.9538 29.5651 21.9538C29.9371 21.9538 30.2491 21.8278 30.5011 21.5758C30.7531 21.3118 30.8791 20.9518 30.8791 20.4958Z" fill="#03A5A8"/>
<path d="M21.3082 20.4058C21.2122 19.9618 21.0442 19.6318 20.8042 19.4158C20.5642 19.1878 20.2222 19.0738 19.7782 19.0738C19.0942 19.0738 18.6022 19.3738 18.3022 19.9738C18.0022 20.5618 17.8462 21.4978 17.8342 22.7818C18.0982 22.3618 18.4762 22.0318 18.9682 21.7918C19.4722 21.5518 20.0242 21.4318 20.6242 21.4318C21.8002 21.4318 22.7422 21.8038 23.4502 22.5478C24.1702 23.2918 24.5302 24.3298 24.5302 25.6618C24.5302 26.5378 24.3502 27.3058 23.9902 27.9658C23.6422 28.6258 23.1262 29.1418 22.4422 29.5138C21.7702 29.8858 20.9722 30.0718 20.0482 30.0718C18.2002 30.0718 16.9162 29.4958 16.1962 28.3438C15.4762 27.1798 15.1162 25.5118 15.1162 23.3398C15.1162 21.0598 15.4942 19.3678 16.2502 18.2638C17.0182 17.1478 18.2422 16.5898 19.9222 16.5898C20.8222 16.5898 21.5782 16.7698 22.1902 17.1298C22.8142 17.4778 23.2822 17.9398 23.5942 18.5158C23.9182 19.0918 24.1102 19.7218 24.1702 20.4058H21.3082ZM19.8862 23.8618C19.3702 23.8618 18.9382 24.0178 18.5902 24.3298C18.2542 24.6298 18.0862 25.0618 18.0862 25.6258C18.0862 26.2018 18.2422 26.6518 18.5542 26.9758C18.8782 27.2998 19.3342 27.4618 19.9222 27.4618C20.4502 27.4618 20.8642 27.3058 21.1642 26.9938C21.4762 26.6698 21.6322 26.2318 21.6322 25.6798C21.6322 25.1158 21.4822 24.6718 21.1822 24.3478C20.8822 24.0238 20.4502 23.8618 19.8862 23.8618Z" fill="#03A5A8"/>
</svg>
